<?xml version="1.0" encoding="UTF-8" standalone="no"?><!DOCTYPE svg PUBLIC "-//W3C//DTD SVG 1.1//EN" "http://www.w3.org/Graphics/SVG/1.1/DTD/svg11.dtd"><svg width="100%" height="100%" viewBox="0 0 2683 1336" version="1.1" xmlns="http://www.w3.org/2000/svg" xmlns:xlink="http://www.w3.org/1999/xlink" xml:space="preserve" xmlns:serif="http://www.serif.com/" style="fill-rule:evenodd;clip-rule:evenodd;stroke-linejoin:round;stroke-miterlimit:2;"><g><path d="M2603.6,1020.2c15.345,-0 27.785,12.44 27.785,27.785c0,0.008 0,0.015 0,0.022c0,76.172 -30.259,149.224 -84.12,203.086c-53.862,53.862 -126.914,84.121 -203.086,84.121c-628.715,-0 -2088.91,-0 -2314.64,-0c-16.313,-0 -29.538,-13.225 -29.538,-29.538c0,-21.911 0,-53.895 0,-88.604c0,-108.729 88.143,-196.872 196.873,-196.872c566.605,-0 2175.61,-0 2406.73,-0Z" style="fill:#fff;fill-opacity:0.8;"/><path d="M2588.43,506.967c25.07,-0 49.113,9.959 66.84,27.686c17.727,17.727 27.686,41.77 27.686,66.84c0,39.842 0,86.12 0,125.962c0,25.07 -9.959,49.113 -27.686,66.84c-17.727,17.727 -41.77,27.686 -66.84,27.686c-391.494,0 -1875.98,0 -2104.24,0c-7.834,0 -15.347,-3.112 -20.887,-8.651c-5.539,-5.54 -8.651,-13.053 -8.651,-20.887c-0,-21.91 -0,-53.894 -0,-88.603c-0,-108.73 88.143,-196.873 196.873,-196.873l1936.91,-0Z" style="fill:#fff;fill-opacity:0.61;"/><path d="M2341.47,0c158.62,0 287.207,128.587 287.207,287.207c0,0.007 0,0.014 0,0.022c0,15.345 -12.44,27.785 -27.786,27.785c-198.197,0 -1395.51,0 -1599.49,0c-16.313,0 -29.538,-13.224 -29.538,-29.538c0,-21.871 0,-53.781 0,-88.419c0,-52.263 20.761,-102.385 57.717,-139.34c36.955,-36.956 87.077,-57.717 139.34,-57.717l1172.55,0Z" style="fill:#fff;fill-opacity:0.3;"/></g></svg>