<?xml version="1.0" encoding="UTF-8" standalone="no"?><!DOCTYPE svg PUBLIC "-//W3C//DTD SVG 1.1//EN" "http://www.w3.org/Graphics/SVG/1.1/DTD/svg11.dtd"><svg width="100%" height="100%" viewBox="0 0 677 722" version="1.1" xmlns="http://www.w3.org/2000/svg" xmlns:xlink="http://www.w3.org/1999/xlink" xml:space="preserve" xmlns:serif="http://www.serif.com/" style="fill-rule:evenodd;clip-rule:evenodd;stroke-linejoin:round;stroke-miterlimit:2;"><g><path d="M340.661,0c179.5,0 336.033,119.693 336.033,312.955c-0,211.201 -193.514,265.854 -301.141,279.918c-17.3,2.24 -32.767,11.904 -42.366,26.47c-9.599,14.566 -12.378,32.59 -7.613,49.371c4.012,14.21 7.865,27.779 10.67,37.658c0.865,3.043 -0.026,6.315 -2.314,8.499c-2.288,2.185 -5.597,2.923 -8.597,1.919c-66.321,-23.911 -325.333,-134.477 -325.333,-403.835c0,-179.501 161.161,-312.955 340.661,-312.955Z" style="fill:#3074e5;"/><path d="M518.6,344.854c1.005,0 1.968,0.399 2.678,1.109c0.71,0.71 1.108,1.673 1.108,2.677c0,0 0,0.001 0,0.001c0,12.441 -4.942,24.372 -13.739,33.169c-8.797,8.797 -20.728,13.739 -33.169,13.739l-372.486,0c-2.251,0 -4.076,-1.824 -4.076,-4.075c0,-4.403 0,-11.818 0,-19.455c0,-7.204 2.863,-14.114 7.957,-19.208c5.095,-5.095 12.004,-7.957 19.209,-7.957c87.349,0 357.368,0 392.518,0Z" style="fill:#fff;fill-opacity:0.8;"/><path d="M517.643,262.259c3.459,0 6.777,1.374 9.223,3.82c2.446,2.446 3.82,5.764 3.82,9.223l0,24.609c0,3.46 -1.374,6.777 -3.82,9.223c-2.446,2.446 -5.764,3.821 -9.223,3.821l-341.483,-0c-2.251,-0 -4.076,-1.825 -4.076,-4.076c-0,-4.403 -0,-11.818 -0,-19.455c-0,-7.204 2.862,-14.114 7.956,-19.208c5.095,-5.095 12.005,-7.957 19.209,-7.957l318.394,0Z" style="fill:#fff;fill-opacity:0.61;"/><path d="M475.043,180.673c12.441,-0 24.372,4.942 33.169,13.739c8.797,8.797 13.739,20.728 13.739,33.169l-0,0.001c-0,1.004 -0.399,1.967 -1.109,2.677c-0.71,0.71 -1.673,1.109 -2.677,1.109c-29.914,0 -227.794,0 -258.77,0c-2.251,0 -4.076,-1.825 -4.076,-4.076c-0,-4.397 -0,-11.801 -0,-19.429c-0,-15.017 12.174,-27.19 27.191,-27.19l192.533,-0Z" style="fill:#fff;fill-opacity:0.3;"/></g></svg>