<?xml version="1.0" encoding="UTF-8" standalone="no"?><!DOCTYPE svg PUBLIC "-//W3C//DTD SVG 1.1//EN" "http://www.w3.org/Graphics/SVG/1.1/DTD/svg11.dtd"><svg width="100%" height="100%" viewBox="0 0 1834 363" version="1.1" xmlns="http://www.w3.org/2000/svg" xmlns:xlink="http://www.w3.org/1999/xlink" xml:space="preserve" xmlns:serif="http://www.serif.com/" style="fill-rule:evenodd;clip-rule:evenodd;stroke-linejoin:round;stroke-miterlimit:2;"><path d="M253.124,357.838c-5.054,-4.228 -11.909,-5.602 -18.201,-3.647c-17.011,5.222 -35.073,8.068 -53.793,8.068c-99.969,0 -181.13,-81.161 -181.13,-181.129c0,-99.969 81.161,-181.13 181.13,-181.13c99.968,-0 181.129,81.161 181.129,181.13c0,18.758 -2.857,36.854 -8.161,53.876c-1.965,6.312 -0.591,13.19 3.648,18.263c10.845,12.861 0,33.992 0,52.114c0,20.105 9.344,33.84 -3.648,47.221c-13.505,13.911 -24.604,5.234 -45.504,5.234c-18.138,-0 -42.564,10.813 -55.47,-0Zm-71.994,-285.671c-60.757,-0 -110.084,49.327 -110.084,110.084c-0,60.757 49.327,110.084 110.084,110.084c60.757,-0 110.084,-49.327 110.084,-110.084c-0,-60.757 -49.327,-110.084 -110.084,-110.084Zm127.464,216.147c-9.421,-0 -17.069,7.648 -17.069,17.069c-0,9.42 7.648,17.069 17.069,17.069c9.42,-0 17.069,-7.649 17.069,-17.069c-0,-9.421 -7.649,-17.069 -17.069,-17.069Z" style="fill:#3c82f6;"/><g><path d="M459.787,358.668l63.926,-0c69.174,-0 110.043,-42.777 110.043,-116.085c-0,-73.15 -40.71,-113.382 -110.043,-113.382l-63.926,-0c-18.447,-0 -29.26,11.131 -29.26,30.532l-0,168.403c-0,19.401 10.813,30.532 29.26,30.532Zm29.101,-47.07l-0,-135.327l27.192,0c36.893,0 58.361,23.376 58.361,66.471c-0,45.798 -20.355,68.856 -58.361,68.856l-27.192,-0Z" style="fill:#3c82f6;fill-rule:nonzero;"/><path d="M691.321,362.166c18.447,0 29.101,-10.972 29.101,-30.373l-0,-175.718c-0,-19.4 -10.654,-30.373 -29.101,-30.373c-18.446,0 -29.26,10.973 -29.26,30.373l0,175.718c0,19.401 10.814,30.373 29.26,30.373Z" style="fill:#3c82f6;fill-rule:nonzero;"/><path d="M843.663,362.644c60.428,-0 96.526,-29.26 96.526,-75.376c-0,-36.098 -22.263,-55.976 -71.242,-65.358l-23.535,-4.453c-24.966,-4.77 -35.302,-11.449 -35.302,-23.535c-0,-13.516 12.403,-23.058 33.553,-23.058c16.856,0 29.578,5.566 37.052,19.878c6.838,11.131 14.789,15.743 27.511,15.743c14.629,-0.159 24.489,-9.223 24.489,-22.74c-0,-4.771 -0.795,-8.587 -2.386,-12.563c-11.131,-29.1 -43.253,-45.957 -87.143,-45.957c-52.795,0 -91.119,28.465 -91.119,72.673c0,34.985 23.853,57.406 69.492,65.994l23.694,4.452c27.193,5.248 36.893,11.768 36.893,24.489c0,13.994 -14.789,24.172 -37.529,24.172c-18.446,-0 -33.871,-6.043 -41.663,-20.355c-7.474,-11.45 -15.107,-15.425 -26.398,-15.425c-14.789,-0 -25.284,9.859 -25.284,24.489c-0,4.771 0.954,9.7 3.021,14.471c9.542,23.694 39.597,42.459 89.37,42.459Z" style="fill:#3c82f6;fill-rule:nonzero;"/><path d="M1073.61,362.644c44.049,-0 80.624,-20.991 94.459,-53.591c2.385,-5.565 3.657,-11.29 3.657,-16.856c0,-15.425 -10.813,-25.761 -27.351,-25.761c-12.245,-0 -19.401,5.089 -25.444,17.651c-9.859,21.627 -25.284,31.804 -46.434,31.804c-32.122,0 -52.159,-27.192 -52.159,-72.195c0,-44.526 20.196,-71.718 52,-71.718c20.196,-0 35.621,10.336 45.957,31.645c6.361,12.721 14.312,17.969 27.193,17.969c15.266,0 25.443,-9.7 25.443,-24.648c0,-6.997 -2.067,-14.312 -5.884,-21.309c-17.174,-32.599 -49.932,-50.41 -93.345,-50.41c-67.743,0 -110.838,43.731 -110.838,118.63c0,75.058 42.141,118.789 112.746,118.789Z" style="fill:#3c82f6;fill-rule:nonzero;"/><path d="M1302.76,362.644c59.633,-0 98.752,-33.872 98.752,-85.395l0,-121.174c0,-19.4 -10.654,-30.373 -29.26,-30.373c-18.446,0 -29.1,10.973 -29.1,30.373l-0,114.973c-0,26.715 -14.471,42.617 -40.392,42.617c-26.079,0 -40.55,-15.902 -40.55,-42.617l-0,-114.973c-0,-19.4 -10.654,-30.373 -29.101,-30.373c-18.446,0 -29.26,10.973 -29.26,30.373l0,121.174c0,51.523 39.119,85.395 98.911,85.395Z" style="fill:#3c82f6;fill-rule:nonzero;"/><path d="M1524.75,362.644c60.428,-0 96.526,-29.26 96.526,-75.376c0,-36.098 -22.263,-55.976 -71.241,-65.358l-23.535,-4.453c-24.967,-4.77 -35.303,-11.449 -35.303,-23.535c0,-13.516 12.404,-23.058 33.553,-23.058c16.857,0 29.578,5.566 37.052,19.878c6.838,11.131 14.789,15.743 27.511,15.743c14.63,-0.159 24.489,-9.223 24.489,-22.74c0,-4.771 -0.795,-8.587 -2.385,-12.563c-11.132,-29.1 -43.254,-45.957 -87.144,-45.957c-52.795,0 -91.119,28.465 -91.119,72.673c0,34.985 23.854,57.406 69.493,65.994l23.694,4.452c27.192,5.248 36.892,11.768 36.892,24.489c0,13.994 -14.788,24.172 -37.528,24.172c-18.447,-0 -33.872,-6.043 -41.664,-20.355c-7.474,-11.45 -15.107,-15.425 -26.397,-15.425c-14.789,-0 -25.285,9.859 -25.285,24.489c0,4.771 0.954,9.7 3.022,14.471c9.541,23.694 39.596,42.459 89.369,42.459Z" style="fill:#3c82f6;fill-rule:nonzero;"/><path d="M1736.88,362.644c60.428,-0 96.526,-29.26 96.526,-75.376c-0,-36.098 -22.263,-55.976 -71.241,-65.358l-23.536,-4.453c-24.966,-4.77 -35.302,-11.449 -35.302,-23.535c-0,-13.516 12.403,-23.058 33.553,-23.058c16.856,0 29.578,5.566 37.052,19.878c6.838,11.131 14.789,15.743 27.511,15.743c14.63,-0.159 24.489,-9.223 24.489,-22.74c-0,-4.771 -0.795,-8.587 -2.385,-12.563c-11.132,-29.1 -43.254,-45.957 -87.144,-45.957c-52.795,0 -91.119,28.465 -91.119,72.673c0,34.985 23.853,57.406 69.492,65.994l23.694,4.452c27.193,5.248 36.893,11.768 36.893,24.489c0,13.994 -14.789,24.172 -37.529,24.172c-18.446,-0 -33.871,-6.043 -41.663,-20.355c-7.474,-11.45 -15.107,-15.425 -26.398,-15.425c-14.789,-0 -25.284,9.859 -25.284,24.489c0,4.771 0.954,9.7 3.022,14.471c9.541,23.694 39.596,42.459 89.369,42.459Z" style="fill:#3c82f6;fill-rule:nonzero;"/></g></svg>