<?xml version="1.0" encoding="UTF-8" standalone="no"?><!DOCTYPE svg PUBLIC "-//W3C//DTD SVG 1.1//EN" "http://www.w3.org/Graphics/SVG/1.1/DTD/svg11.dtd"><svg width="100%" height="100%" viewBox="0 0 363 363" version="1.1" xmlns="http://www.w3.org/2000/svg" xmlns:xlink="http://www.w3.org/1999/xlink" xml:space="preserve" xmlns:serif="http://www.serif.com/" style="fill-rule:evenodd;clip-rule:evenodd;stroke-linejoin:round;stroke-miterlimit:2;"><path d="M253.124,357.838c-5.054,-4.228 -11.909,-5.602 -18.201,-3.647c-17.011,5.222 -35.073,8.068 -53.793,8.068c-99.969,0 -181.13,-81.161 -181.13,-181.129c0,-99.969 81.161,-181.13 181.13,-181.13c99.968,-0 181.129,81.161 181.129,181.13c0,18.758 -2.857,36.854 -8.161,53.876c-1.965,6.312 -0.591,13.19 3.648,18.263c10.845,12.861 0,33.992 0,52.114c0,20.105 9.344,33.84 -3.648,47.221c-13.505,13.911 -24.604,5.234 -45.504,5.234c-18.138,-0 -42.564,10.813 -55.47,-0Zm-71.994,-285.671c-60.757,-0 -110.084,49.327 -110.084,110.084c-0,60.757 49.327,110.084 110.084,110.084c60.757,-0 110.084,-49.327 110.084,-110.084c-0,-60.757 -49.327,-110.084 -110.084,-110.084Zm127.464,216.147c-9.421,-0 -17.069,7.648 -17.069,17.069c-0,9.42 7.648,17.069 17.069,17.069c9.42,-0 17.069,-7.649 17.069,-17.069c-0,-9.421 -7.649,-17.069 -17.069,-17.069Z" style="fill:#3c82f6;"/></svg>