<?xml version="1.0" encoding="UTF-8" standalone="no"?><!DOCTYPE svg PUBLIC "-//W3C//DTD SVG 1.1//EN" "http://www.w3.org/Graphics/SVG/1.1/DTD/svg11.dtd"><svg width="100%" height="100%" viewBox="0 0 1990 394" version="1.1" xmlns="http://www.w3.org/2000/svg" xmlns:xlink="http://www.w3.org/1999/xlink" xml:space="preserve" xmlns:serif="http://www.serif.com/" style="fill-rule:evenodd;clip-rule:evenodd;stroke-linejoin:round;stroke-miterlimit:2;"><g><g><path d="M283.514,393.848c30.142,-0 47.204,-18.484 47.204,-50.617l0,-292.614c0,-32.133 -17.062,-50.617 -47.204,-50.617c-30.143,-0 -46.921,18.199 -46.921,50.617l0,106.353l-142.468,0l0,-106.353c0,-32.133 -17.062,-50.617 -47.204,-50.617c-30.143,-0 -46.921,18.199 -46.921,50.617l-0,292.614c-0,32.417 16.778,50.617 46.921,50.617c30.142,-0 47.204,-18.484 47.204,-50.617l0,-111.472l142.468,-0l0,111.472c0,32.417 16.778,50.617 46.921,50.617Z" style="fill-rule:nonzero;"/><path d="M453.565,393.848c29.858,-0 46.636,-18.2 46.636,-50.617l0,-292.614c0,-32.133 -17.062,-50.617 -47.205,-50.617c-30.143,-0 -46.92,18.199 -46.92,50.617l-0,292.614c-0,32.133 17.346,50.617 47.489,50.617Z" style="fill-rule:nonzero;"/><path d="M765.515,316.216l134.181,-0c2.064,-0 3.737,1.673 3.737,3.736c0,6.047 0,17.307 0,17.307c0,34.977 -19.337,53.745 -54.883,53.745l-97.537,0c-114.316,0 -175.455,-67.679 -175.455,-194.222c0,-126.259 61.139,-193.938 175.455,-193.938l97.537,-0c35.546,-0 54.883,18.768 54.883,53.745l0,17.022c0,2.064 -1.673,3.737 -3.737,3.737l-134.181,-0c-64.551,-0 -93.841,37.252 -93.841,119.434c0,82.466 29.29,119.434 93.841,119.434Z"/><path d="M1102.73,316.216l-134.181,-0c-2.064,-0 -3.737,1.673 -3.737,3.736c-0,6.047 -0,17.307 -0,17.307c-0,34.977 19.337,53.745 54.883,53.745l97.538,0c114.315,0 175.454,-67.679 175.454,-194.222c-0,-126.259 -61.139,-193.938 -175.454,-193.938l-97.538,-0c-35.546,-0 -54.883,18.768 -54.883,53.745l-0,17.022c-0,2.064 1.673,3.737 3.737,3.737l134.181,-0c64.551,-0 93.841,37.252 93.841,119.434c-0,82.466 -29.29,119.434 -93.841,119.434Z"/><path d="M1343.92,337.259c0,34.977 19.053,53.745 54.599,53.745l174.601,0c23.033,0 38.389,-14.502 38.389,-37.252c0,-22.465 -15.356,-37.252 -38.105,-37.252l-136.496,0l0,-86.447l130.809,-0c20.19,-0 33.839,-13.366 33.839,-34.124c0,-20.475 -13.649,-34.693 -33.839,-34.693l-130.809,-0l0,-83.888l137.634,-0c21.611,-0 36.967,-15.072 36.967,-36.968c0,-22.181 -15.356,-37.536 -36.967,-37.536l-176.023,-0c-35.546,-0 -54.599,19.052 -54.599,53.745l0,280.67Z" style="fill-rule:nonzero;"/><path d="M1757.1,344.937l-0,-185.976l3.697,-0l131.946,197.635c19.337,28.437 32.133,37.252 53.176,37.252c28.722,-0 44.077,-18.2 44.077,-52.324l0,-292.613c0,-30.712 -16.493,-48.911 -44.077,-48.911c-27.299,-0 -43.223,18.199 -43.223,48.911l-0,183.701l-3.697,-0l-130.809,-195.076c-18.768,-27.299 -30.711,-37.536 -51.47,-37.536c-30.996,-0 -46.636,18.768 -46.636,55.167l-0,289.77c-0,30.427 16.209,48.911 43.792,48.911c27.584,-0 43.224,-18.2 43.224,-48.911Z" style="fill-rule:nonzero;"/></g><path d="M1152.24,245.576c2.118,0 3.834,1.717 3.834,3.834c0,0.001 0,0.002 0,0.003c0.001,10.511 -4.175,20.591 -11.607,28.023c-7.432,7.432 -17.512,11.607 -28.022,11.607l-319.384,0c-2.251,0 -4.076,-1.825 -4.076,-4.076c-0,-3.023 -0,-7.436 -0,-12.225c-0,-15.003 12.162,-27.166 27.165,-27.166c78.183,0 300.199,0 332.09,0Z" style="fill-opacity:0.8;"/><path d="M1150.15,174.758c3.459,0 6.776,1.374 9.223,3.82c2.446,2.446 3.82,5.764 3.82,9.223c-0,5.498 -0,11.883 -0,17.381c-0,3.459 -1.374,6.777 -3.82,9.223c-2.447,2.446 -5.764,3.82 -9.223,3.82c-54.02,0 -258.856,0 -290.353,0c-1.081,0 -2.117,-0.429 -2.882,-1.194c-0.764,-0.764 -1.193,-1.801 -1.193,-2.882c-0,-3.023 -0,-7.436 -0,-12.226c-0,-15.003 12.162,-27.165 27.165,-27.165l267.263,0Z" style="fill-opacity:0.61;"/><path d="M1116.07,104.805c21.887,-0 39.63,17.743 39.63,39.63c-0,0.001 -0,0.002 -0,0.003c-0,2.117 -1.717,3.834 -3.834,3.834c-27.348,-0 -192.558,-0 -220.705,-0c-2.251,-0 -4.075,-1.825 -4.075,-4.076l-0,-12.201c-0,-7.211 2.864,-14.127 7.964,-19.226c5.099,-5.1 12.015,-7.964 19.226,-7.964l161.794,-0Z" style="fill-opacity:0.3;"/></g></svg>